grf
version=1
nRows=11
nColumns=37
inDegrees=no
endheader
time	ground_force_1_vx	ground_force_1_vy	ground_force_1_vz	ground_force_1_px	ground_force_1_py	ground_force_1_pz	ground_moment_1_mx	ground_moment_1_my	ground_moment_1_mz	ground_force_2_vx	ground_force_2_vy	ground_force_2_vz	ground_force_2_px	ground_force_2_py	ground_force_2_pz	ground_moment_2_mx	ground_moment_2_my	ground_moment_2_mz	ground_force_3_vx	ground_force_3_vy	ground_force_3_vz	ground_force_3_px	ground_force_3_py	ground_force_3_pz	ground_moment_3_mx	ground_moment_3_my	ground_moment_3_mz	ground_force_4_vx	ground_force_4_vy	ground_force_4_vz	ground_force_4_px	ground_force_4_py	ground_force_4_pz	ground_moment_4_mx	ground_moment_4_my	ground_moment_4_mz
      2.35000000	      0.00000000	     -0.00000000	      0.00000000	      0.00000000	      0.00000000	      0.00000000	      0.00000000	      0.00000000	      0.00000000	     -3.73445868	     17.62307549	   -355.44607544	   -356.64207461	  -1086.97599366	      0.00000000	      0.00000000	      0.00000000	   5692.23887940	      4.13199494	    -19.33624113	   -369.12689209	   -359.19256492	   -726.69424618	      0.00000000	      0.00000000	     -0.00000000	  -4921.59335568	      0.00000000	     -0.00000000	      0.00000000	      0.00000000	      0.00000000	      0.00000000	      0.00000000	      0.00000000	      0.00000000
      2.36000000	      0.00000000	     -0.00000000	      0.00000000	      0.00000000	      0.00000000	      0.00000000	      0.00000000	      0.00000000	      0.00000000	     -3.58676481	     17.70029449	   -356.78436279	   -357.15900030	  -1086.97434085	      0.00000000	      0.00000000	      0.00000000	   5738.86405386	      3.72585132	    -18.88857874	   -368.15124512	   -359.47011061	   -727.74209922	      0.00000000	      0.00000000	     -0.00000000	  -4624.45438643	      0.00000000	     -0.00000000	      0.00000000	      0.00000000	      0.00000000	      0.00000000	      0.00000000	      0.00000000	      0.00000000
      2.37000000	      0.00000000	     -0.00000000	      0.00000000	      0.00000000	      0.00000000	      0.00000000	      0.00000000	      0.00000000	      0.00000000	     -3.31289315	     17.04809380	   -356.12518311	   -357.06755468	  -1086.52762370	      0.00000000	      0.00000000	      0.00000000	   5600.90154654	      3.46581149	    -19.08961517	   -369.75158691	   -358.26889070	   -726.73925681	      0.00000000	      0.00000000	     -0.00000000	  -4561.54541928	      0.00000000	     -0.00000000	      0.00000000	      0.00000000	      0.00000000	      0.00000000	      0.00000000	      0.00000000	      0.00000000
      2.38000000	      0.00000000	     -0.00000000	      0.00000000	      0.00000000	      0.00000000	      0.00000000	      0.00000000	      0.00000000	      0.00000000	     -3.35407996	     17.75430679	   -357.01754761	   -356.97413955	  -1086.86981927	      0.00000000	      0.00000000	      0.00000000	   5774.71489145	      3.83868764	    -19.32443462	   -371.44982910	   -358.72842455	   -726.05750679	      0.00000000	     -0.00000000	     -0.00000000	  -4666.95322287	      0.00000000	     -0.00000000	      0.00000000	      0.00000000	      0.00000000	      0.00000000	      0.00000000	      0.00000000	      0.00000000
      2.39000000	      0.00000000	     -0.00000000	      0.00000000	      0.00000000	      0.00000000	      0.00000000	      0.00000000	      0.00000000	      0.00000000	     -3.38999939	     17.12484360	   -357.20529175	   -356.33383549	  -1087.19962301	      0.00000000	      0.00000000	      0.00000000	   5691.83760265	      3.63714053	    -18.89491304	   -370.79901123	   -358.96569943	   -727.09316901	      0.00000000	      0.00000000	     -0.00000000	  -4497.31449590	      0.00000000	     -0.00000000	      0.00000000	      0.00000000	      0.00000000	      0.00000000	      0.00000000	      0.00000000	      0.00000000
      2.40000000	      0.00000000	     -0.00000000	      0.00000000	      0.00000000	      0.00000000	      0.00000000	      0.00000000	      0.00000000	      0.00000000	     -3.38999939	     17.55285072	   -357.72503662	   -356.67907838	  -1087.02147768	      0.00000000	      0.00000000	      0.00000000	   5645.60614201	      4.08069445	    -18.98329961	   -371.42779541	   -358.77873469	   -726.17692704	      0.00000000	      0.00000000	     -0.00000000	  -4815.65295453	      0.00000000	     -0.00000000	      0.00000000	      0.00000000	      0.00000000	      0.00000000	      0.00000000	      0.00000000	      0.00000000
      2.41000000	      0.00000000	     -0.00000000	      0.00000000	      0.00000000	      0.00000000	      0.00000000	      0.00000000	      0.00000000	      0.00000000	     -3.63452148	     17.62473106	   -361.14300537	   -357.11037834	  -1089.80624719	      0.00000000	      0.00000000	      0.00000000	   5770.80618272	      4.05157782	    -18.88924634	   -368.40081787	   -358.81551210	   -727.38639044	      0.00000000	      0.00000000	     -0.00000000	  -4607.92553014	      0.00000000	     -0.00000000	      0.00000000	      0.00000000	      0.00000000	      0.00000000	      0.00000000	      0.00000000	      0.00000000
      2.42000000	      0.00000000	     -0.00000000	      0.00000000	      0.00000000	      0.00000000	      0.00000000	      0.00000000	      0.00000000	      0.00000000	     -3.92526245	     17.20216751	   -360.94989014	   -356.55757691	  -1087.74035743	      0.00000000	      0.00000000	      0.00000000	   5432.04190963	      3.89178063	    -18.88939892	   -367.98318481	   -358.75886044	   -727.49749550	      0.00000000	      0.00000000	     -0.00000000	  -4655.94582762	      0.00000000	     -0.00000000	      0.00000000	      0.00000000	      0.00000000	      0.00000000	      0.00000000	      0.00000000	      0.00000000
      2.43000000	      0.00000000	     -0.00000000	      0.00000000	      0.00000000	      0.00000000	      0.00000000	      0.00000000	      0.00000000	      0.00000000	     -3.79661274	     17.30818558	   -359.00924683	   -357.02128874	  -1086.84082645	      0.00000000	      0.00000000	      0.00000000	   5447.22222935	      3.72585135	    -18.47620043	   -365.95559692	   -358.44451875	   -728.21234645	      0.00000000	      0.00000000	     -0.00000000	  -4612.13265724	      0.00000000	     -0.00000000	      0.00000000	      0.00000000	      0.00000000	      0.00000000	      0.00000000	      0.00000000	      0.00000000
      2.44000000	      0.00000000	     -0.00000000	      0.00000000	      0.00000000	      0.00000000	      0.00000000	      0.00000000	      0.00000000	      0.00000000	     -3.48476720	     17.75360680	   -361.45825195	   -356.90478767	  -1088.75496257	      0.00000000	      0.00000000	      0.00000000	   5638.37253550	      3.45971903	    -18.05110389	   -366.74154663	   -358.54793449	   -726.86810540	      0.00000000	      0.00000000	     -0.00000000	  -4686.62888597	      0.00000000	     -0.00000000	      0.00000000	      0.00000000	      0.00000000	      0.00000000	      0.00000000	      0.00000000	      0.00000000
      2.45000000	      0.00000000	     -0.00000000	      0.00000000	      0.00000000	      0.00000000	      0.00000000	      0.00000000	      0.00000000	      0.00000000	     -3.56842041	     17.79865074	   -358.96124268	   -356.04849741	  -1087.64174565	      0.00000000	      0.00000000	      0.00000000	   5517.51827331	      3.73139005	    -18.53652605	   -367.94039917	   -357.98943899	   -726.38891190	      0.00000000	      0.00000000	     -0.00000000	  -4659.39969110	      0.00000000	     -0.00000000	      0.00000000	      0.00000000	      0.00000000	      0.00000000	      0.00000000	      0.00000000	      0.00000000
